# xmcd
#
# Track frame offsets:
#       151
#       22210
#       36418
#       51078
#       57628
#       63665
#       97115
#       108708
#       111515
#       131193
#       163085
#       182120
#       184570
#       211648
#
# Disc length: 3099 seconds
#
# Revision: 9
# Processed by: cddbd v1.4PL0 Copyright (c) Steve Scherf et al.
# Submitted via: WhereIsIt 3.25
#
DISCID=dd0c190e
DTITLE=Pink Floyd - Is There Anybody Out There? - The Wall Live Disc 2
DYEAR=1900
DGENRE=
TTITLE0=Hey You
TTITLE1=Is There Anybody Out There?
TTITLE2=Nobody Home
TTITLE3=Vera
TTITLE4=Bring The Boys Back Home
TTITLE5=Comfortably Numb
TTITLE6=The Show Must Go On
TTITLE7=Mc - Atmos
TTITLE8=In The Flesh
TTITLE9=Run Like Hell
TTITLE10=Waiting For The Worms
TTITLE11=Stop
TTITLE12=The Trial
TTITLE13=Outside The Wall
EXTD=
EXTT0=
EXTT1=
EXTT2=
EXTT3=
EXTT4=
EXTT5=
EXTT6=
EXTT7=
EXTT8=
EXTT9=
EXTT10=
EXTT11=
EXTT12=
EXTT13=
PLAYORDER=
